# xmcd
#
# Track frame offsets:
#	150
#	16023
#	32881
#	51455
#	67460
#	85512
#	102391
#	116198
#	133456
#
# Disc length: 2010 seconds
#
# Revision: 1
# Processed by: cddbd v1.5.2PL0 Copyright (c) Steve Scherf et al.
# Submitted via: audiograbber 1.83.01
#
DISCID=8507d809
DTITLE=Various Artist - CDX Volume 587 (January 20, 2014)
DYEAR=2014
DGENRE=Country
TTITLE0=Ashley Gearing - Boomerang
TTITLE1=Eric Church - Give Me Back My Hometown [Radio Edit]
TTITLE2=Debbie Cochran - What's Going On 
TTITLE3=Clint Taylor - Boots
TTITLE4=Sherry Lynn - Girls Will Be Girls
TTITLE5=Stevie Lee Woods - Hey... What Do I Know
TTITLE6=Melissa Greenwood - Roller Coaster Ride
TTITLE7=North 40 - Tell Me Somethin' Good
TTITLE8=Lexi Larsen - You Can Leave 
EXTD=
EXTT0=
EXTT1=
EXTT2=
EXTT3=
EXTT4=
EXTT5=
EXTT6=
EXTT7=
EXTT8=
PLAYORDER=
